<?xml version="1.0" encoding="utf-8"?>
<!-- Generator: Adobe Illustrator 18.1.1, SVG Export Plug-In . SVG Version: 6.00 Build 0)  -->
<!DOCTYPE svg PUBLIC "-//W3C//DTD SVG 1.1//EN" "http://www.w3.org/Graphics/SVG/1.1/DTD/svg11.dtd">
<svg version="1.1" id="Layer_1" xmlns="http://www.w3.org/2000/svg" xmlns:xlink="http://www.w3.org/1999/xlink" x="0px" y="0px"
	 width="72px" height="65px" viewBox="0 0 72 65" enable-background="new 0 0 72 65" xml:space="preserve">
<g>
	<path fill="#3C3B34" d="M15.4,27.1L15.4,27.1c0.2-0.4,0.3-1.7-0.9-2.8C13.3,23,11.9,23,11.4,23l0,0c0,0.4,0.1,1.8,1.2,3
		C13.8,27.3,15,27.1,15.4,27.1z"/>
	<path fill="#3C3B34" d="M39.6,41.6c0.8-0.9,0.9-1.9,0.9-2.2l0,0c-0.3,0-1.3,0-2.2,0.9c-0.2,0.2-0.3,0.3-0.4,0.5v-3.3
		c0.7,0.6,1.7,1,2.8,1h11.3c1.5,0,2.8-0.8,3.5-1.9h2.5c2.3,0,4.2-1.9,4.2-4.2v-3.9c0.4,0,1.1-0.1,1.7-0.8c0.8-0.9,0.9-1.9,0.9-2.2
		l0,0c-0.3,0-1.3,0-2.2,0.9c-0.2,0.1-0.3,0.3-0.4,0.4v-0.2c0-0.4-0.3-0.7-0.7-0.7c-0.4,0-0.7,0.3-0.7,0.7v3c0,0,0,0-0.1-0.1
		c-0.9-0.8-1.9-0.9-2.2-0.9l0,0c0,0.3,0,1.3,0.9,2.2c0.5,0.5,1,0.7,1.4,0.7v0.8c0,1.5-1.2,2.8-2.8,2.8h-1.9c0-0.2,0.1-0.4,0.1-0.7
		c0.1-0.3,0.1-1-0.6-1.7c-0.8-0.8-1.7-0.8-2-0.8l0,0c0,0.3,0,1.2,0.8,2c0.1,0.1,0.3,0.2,0.4,0.3c0,0,0,0,0,0c0,1.5-1.2,2.8-2.8,2.8
		h-2.7c0.6-0.7,1-1.7,1-2.8v-5.5c0.5,0.1,1.5,0,2.5-1c1.2-1.2,1.2-2.6,1.2-3l0,0c-0.4,0-1.9,0-3.1,1.2c-0.3,0.3-0.5,0.6-0.6,0.8
		v-4.2c0,0,0-0.1,0-0.1c0,0,0,0,0-0.1c0.3,0,1,0.1,1.7-0.7c0.8-0.8,0.8-1.7,0.8-2l0,0c-0.3,0-1.2,0-2,0.8c-0.2,0.2-0.4,0.5-0.5,0.7
		c0.1-0.5,0.3-1.2,0.7-1.7c0.6-0.6,1.4-1,2.6-1c0.4,0,0.7-0.3,0.7-0.7c0-0.4-0.3-0.7-0.7-0.7c-1.6,0-2.9,0.5-3.7,1.5
		c-1.3,1.5-1.1,3.7-1.1,4v2c-0.2-0.3-0.4-0.7-0.8-1.1c-1.2-1.2-2.6-1.2-3.1-1.2l0,0c0,0.4,0.1,1.8,1.2,3c1.1,1.1,2.2,1.1,2.6,1v4
		c-0.2-0.3-0.4-0.6-0.7-0.9c-1.5-1.4-3.3-1.5-3.8-1.5l0,0c0,0.5,0.1,2.3,1.5,3.8c1.2,1.2,2.3,1.3,3,1.3v1.2c0,1.5-1.2,2.8-2.8,2.8
		h-5.4c-1.5,0-2.7-1.1-2.8-2.6l0,0c0.3,0.1,1.1,0.2,2-0.7c0.8-0.9,0.9-1.9,0.9-2.2l0,0c-0.3,0-1.3,0-2.2,0.9
		c-0.4,0.4-0.6,0.8-0.7,1.1V31c0.1,0,0.2,0.1,0.3,0.1c2.3,0,4.2-1.9,4.2-4.2v-3.7c0.4,0,1.1,0,1.8-0.7c0.8-0.9,0.9-1.9,0.9-2.2l0,0
		c-0.3,0-1.3,0-2.2,0.9c-0.2,0.2-0.3,0.4-0.5,0.6v-6.4c0.4,0.1,1.6,0.2,2.7-1c1.2-1.2,1.2-2.6,1.2-3l0,0c-0.4,0-1.9,0-3.1,1.2
		c-0.5,0.4-0.7,0.9-0.9,1.3v-4C42.4,9.3,42,9,41.6,9c-0.3,0-0.5,0.2-0.6,0.4c-0.1-0.6-0.5-1.3-1.2-2c-1.5-1.4-3.3-1.5-3.8-1.5l0,0
		c0,0.5,0.1,2.3,1.5,3.8c1.4,1.5,2.9,1.3,3.4,1.2l0,0v5.4c-0.2-0.3-0.4-0.7-0.8-1.1C38.9,14,37.5,14,37.1,14l0,0
		c0,0.4,0.1,1.8,1.2,3c1.1,1.1,2.2,1.1,2.6,1v8.8c0,1.5-1.2,2.8-2.8,2.8c-0.1,0-0.2,0-0.3,0.1v-1.2c0,0,0,0,0,0v-2.2l0,0
		c0.2,0.1,1,0.1,1.8-0.6c0.8-0.8,0.8-1.7,0.8-2l0,0c-0.3,0-1.2,0-2,0.8c-0.3,0.3-0.5,0.6-0.6,0.9v-4.4c0-2.3-1.9-4.2-4.2-4.2h-0.8
		c0-0.4-0.2-1-0.7-1.5c-0.9-0.8-1.9-0.9-2.2-0.8l0,0c0,0.3,0,1.3,0.9,2.1c0.1,0.1,0.1,0.1,0.2,0.2h-2.4c-0.1-0.6-0.4-1.4-1.2-2.1
		c-1.5-1.4-3.3-1.5-3.8-1.5l0,0c0,0.5,0.1,2.3,1.5,3.8c1.4,1.4,2.7,1.3,3.3,1.3h5.3c1.5,0,2.8,1.2,2.8,2.8V23
		c-0.2-0.5-0.5-1.1-1.1-1.6c-1.5-1.4-3.3-1.5-3.8-1.5l0,0c0,0.5,0.1,2.3,1.5,3.8c1.4,1.5,2.9,1.3,3.4,1.2v7c0,0,0,0,0,0v2.3
		c-0.2-0.3-0.4-0.7-0.7-1C34.5,32,33.1,32,32.6,32l0,0c0,0.4,0.1,1.8,1.2,3c1.1,1.1,2.1,1.1,2.6,1v1.7c0,1.5-1.2,2.8-2.8,2.8h-2.6
		c0.6-0.7,1-1.7,1-2.8v-9.1c0.3,0,1.1,0,1.8-0.7c0.8-0.8,0.9-1.8,0.9-2.1l0,0c-0.3,0-1.3,0-2.1,0.8c-0.2,0.2-0.4,0.5-0.5,0.7V26
		c0-2.2-1.8-4.1-4-4.2c-0.1-0.2-0.3-0.5-0.5-0.7c-0.9-0.8-1.9-0.9-2.2-0.8l0,0c0,0.3,0,1.3,0.9,2.1c0.4,0.4,0.8,0.6,1.1,0.7
		c0.1,0.1,0.3,0.2,0.5,0.2c1.5,0,2.8,1.2,2.8,2.8v4c-0.2-0.3-0.4-0.6-0.7-1c-1.2-1.2-2.6-1.2-3.1-1.2l0,0c0,0.4,0.1,1.8,1.2,3
		c1,1.1,2.1,1.1,2.6,1v4.1c-0.2-0.5-0.5-1-1-1.4c-1.4-1.3-3-1.4-3.5-1.3l0,0c0,0.5,0.1,2.1,1.4,3.4c1.3,1.3,2.6,1.2,3.1,1.1
		c0,1.5-1.3,2.7-2.8,2.7h-2.4h-3.3v-1.2c0.4,0.1,1.3,0.1,2.2-0.8c1-1,1-2.2,1-2.5l0,0c-0.4,0-1.5,0-2.5,1c-0.3,0.3-0.5,0.6-0.6,0.9
		v-6c0.3,0,1.1,0,1.8-0.7c0.8-0.8,0.9-1.8,0.9-2.1l0,0c-0.3,0-1.3,0-2.1,0.8c-0.2,0.2-0.4,0.4-0.5,0.7c0.1-1.5,1.3-2.6,2.8-2.6
		c0.4,0,0.7-0.3,0.7-0.7c0-0.4-0.3-0.7-0.7-0.7c-2.3,0-4.2,1.9-4.2,4.2V33c-0.1-0.2-0.3-0.5-0.5-0.7c-0.8-0.8-1.7-0.8-2-0.8l0,0
		c0,0.3,0,1.2,0.8,2c0.7,0.7,1.5,0.7,1.8,0.7v6.4h-1.1c-1.3,0-2.4-0.9-2.7-2.2l0,0c0.3,0.1,1.3,0.2,2.3-0.8c1-1,1-2.2,1-2.5l0,0
		c-0.4,0-1.5,0-2.5,1c-0.5,0.5-0.8,1.1-0.8,1.5v-8.9c0,0,0,0.1,0,0.1l0.1,0.1c0.4,0.1,1.6,0.2,2.7-1c1.2-1.2,1.2-2.6,1.2-3l0,0
		c-0.4,0-1.9,0-3.1,1.2c-0.6,0.6-0.9,1.2-1,1.8v-5.4c0-0.4-0.3-0.7-0.7-0.7c-0.4,0-0.7,0.3-0.7,0.7v9.2c-0.2-0.4-0.5-0.9-1-1.3
		c-1.5-1.4-3.3-1.5-3.8-1.5l0,0c0,0.5,0.1,2.3,1.5,3.8c1.3,1.4,2.7,1.3,3.3,1.3v4c0,1.1,0.4,2,1,2.8h-3.4c-1.3,0-2.3-0.8-2.6-2
		c0.5,0.1,1.5,0,2.5-1c1.2-1.2,1.2-2.6,1.2-3l0,0c-0.4,0-1.9,0-3.1,1.2c-0.6,0.6-0.9,1.2-1,1.7C10.1,37.1,9.9,37,9.7,37
		c-0.1,0-0.2,0-0.3,0.1c-0.1-0.3-0.2-0.7-0.6-1.1c-0.8-0.8-1.7-0.8-2-0.8l0,0c0,0.3,0,1.2,0.8,2c0.5,0.6,1.1,0.7,1.5,0.7
		c0.1,2.2,1.9,4,4.2,4h6.6h1.1v0.5c0,0.1,0,0.3,0,0.4c-0.7-0.4-1.4-0.5-1.6-0.4l0,0c0,0.3,0,1.2,0.8,2c0.7,0.7,1.4,0.7,1.7,0.7
		c0.7,0.8,1.7,1.4,2.8,1.5c-0.4,0.1-0.8,0.3-1.3,0.8c-0.9,0.9-1,2-1,2.4l0,0c0.3,0,1.4,0,2.4-0.9c0.9-0.9,0.8-1.9,0.7-2.2l0,0H30
		c-0.2,0.1-0.5,0.3-0.7,0.5c-0.8,0.8-0.8,1.7-0.8,2l0,0c0.3,0,1.2,0,2-0.8c0.7-0.7,0.7-1.4,0.6-1.7c1.4,0.1,2.5,1.3,2.5,2.7v4.4
		c0,1.5-1.2,2.8-2.8,2.8c-0.4,0-0.7,0.3-0.7,0.7c0,0.4,0.3,0.7,0.7,0.7c2.3,0,4.2-1.9,4.2-4.2v-4.4c0-0.6-0.1-1.2-0.4-1.8
		c1.8-0.5,3.2-2.1,3.2-4.1v-1.2C38.3,42.3,39,42.3,39.6,41.6z M33.7,46.3c-0.7-0.7-1.7-1.1-2.8-1.1h0c0,0,0,0,0,0h-4.3
		c0.2-0.1,0.4-0.2,0.6-0.5c0.8-0.8,0.8-1.7,0.8-2l0,0c-0.3,0-1.2,0-2,0.8c-0.7,0.7-0.7,1.3-0.6,1.7h-0.3c-1.5,0-2.8-1.2-2.8-2.8V42
		h3.3H28h5.7c1.1,0,2-0.4,2.8-1v2.6C36.4,45,35.2,46.3,33.7,46.3z"/>
	<path fill="#3C3B34" d="M42.4,9.7c0.2,0.1,1,0.1,1.8-0.6C45,8.3,45,7.4,45,7.1l0,0c-0.3,0-1.2,0-2,0.8C42.2,8.6,42.3,9.4,42.4,9.7
		L42.4,9.7z"/>
	<path fill="#3C3B34" d="M65.9,34.2L65.9,34.2c-0.3,0-1.4,0-2.2,0.8c-0.1,0.1-0.2,0.2-0.3,0.4c-0.1-0.3-0.4-0.5-0.7-0.5
		c-0.4,0-0.7,0.3-0.7,0.7v4.2c-0.2-0.4-0.4-0.7-0.8-1.1c-1.2-1.2-2.6-1.2-3-1.2l0,0c0,0.4,0.1,1.8,1.2,3c1.1,1.1,2.2,1.1,2.6,1
		c-0.1,1.5-1.3,2.6-2.8,2.6h-6.7c0.2-0.1,0.5-0.3,0.7-0.6c1.1-1.1,1.1-2.4,1.1-2.8l0,0c-0.4,0-1.7,0-2.9,1.1c-0.9,0.9-1,1.8-0.9,2.3
		h-3.1c-1.4,0-2.6-1.1-2.7-2.5h4.7c0.2,0,0.4-0.1,0.5-0.2c0.3,0,0.8-0.2,1.3-0.6c0.7-0.7,0.8-1.6,0.8-1.9l0,0c-0.3,0-1.2,0-1.9,0.7
		c-0.2,0.2-0.4,0.4-0.4,0.6c-0.1,0-0.1,0-0.2,0h-5.8c-2.3,0-4.2,1.9-4.2,4.2v9.2c0,2.3,1.9,4.2,4.2,4.2c0.4,0,0.7-0.3,0.7-0.7
		c0-0.4-0.3-0.7-0.7-0.7c-1.5,0-2.8-1.2-2.8-2.8V49c0.2,0,0.7,0,1.2-0.5c0.6-0.6,0.6-1.2,0.6-1.4l0,0c-0.2,0-0.9,0-1.5,0.6
		c-0.1,0.1-0.2,0.3-0.3,0.4v-1.8c0.3,0,0.9-0.1,1.5-0.6C43,44.8,43,44,43,43.7l0,0c-0.3,0-1.2,0-1.9,0.7c-0.1,0.1-0.2,0.2-0.3,0.3
		v-0.2c0-1.4,1.1-2.6,2.4-2.7c0.2,2.2,2,3.9,4.2,3.9h6.3c-0.1,0.5,0,1.4,1,2.4c1.1,1.1,2.4,1.1,2.8,1.1l0,0c0-0.4,0-1.7-1.1-2.9
		c-0.3-0.3-0.6-0.5-0.9-0.7h3.6c2.3,0,4.2-1.9,4.2-4.2v-4.3c0.4,0,1-0.1,1.6-0.8C65.8,35.5,65.9,34.5,65.9,34.2z"/>
</g>
</svg>
